<svg xmlns="http://www.w3.org/2000/svg" width="194.816" height="60" viewBox="0 0 194.816 60">
  <g id="XMLID_149_" transform="translate(-46 -38.999)">
    <path id="XMLID_162_" d="M83.129,104.17V81.617c-.186,0-.373-.037-.522-.037H59.047c-.522,0-.559,0-.559.522v21.4c0,.82.075.708-.708.708H46.037c0-.186-.037-.336-.037-.485v-54.5c0-.522,0-.522.522-.522H58c.41,0,.522.112.522.522V70.769c0,.6,0,.6.559.6H82.57c.6,0,.6,0,.6-.559V48.775H95.655c0,.149.037.3.037.447v54.985l-.075.075H83.278A.7.7,0,0,1,83.129,104.17Z" transform="translate(0 -6.085)" fill="#fff"/>
    <path id="XMLID_159_" d="M227.608,125.427v-2.088c-7.157,3.8-14.315,4.063-21.51.373a21.167,21.167,0,0,1-9.208-9.394,21.785,21.785,0,0,1,3.653-24.939,22.229,22.229,0,0,1,27.288-3.691v-2.2h10.885v41.938c-.075,0-.112.037-.149.037H227.683C227.645,125.464,227.645,125.464,227.608,125.427Zm-10.624-8.238c.783-.112,1.566-.149,2.349-.3A12.6,12.6,0,0,0,229.547,101.9a12.8,12.8,0,0,0-25.2,4.4A12.953,12.953,0,0,0,216.984,117.189Z" transform="translate(-93.147 -27.342)" fill="#fff"/>
    <path id="XMLID_156_" d="M423.005,112.637a20.175,20.175,0,0,1-3.43,5.629,22.276,22.276,0,0,1-13.756,7.754,21.009,21.009,0,0,1-5.517.186,22.18,22.18,0,0,1-17.409-10.736,20.984,20.984,0,0,1-2.8-7.493,19.293,19.293,0,0,1-.224-5.07,22.046,22.046,0,0,1,17.782-19.869,33.312,33.312,0,0,1,3.877-.41,14.933,14.933,0,0,1,2.237,0,20.815,20.815,0,0,1,6.859,1.528c7.12,2.982,11.705,8.164,13.495,15.731a20.093,20.093,0,0,1,.447,6.151c-.037.261-.075.485-.112.783H390.275c.224.746.336,1.454.6,2.125a12.34,12.34,0,0,0,9.245,8.276,12.349,12.349,0,0,0,13.085-5.965.453.453,0,0,1,.522-.261c2.945.522,5.89,1.044,8.872,1.566A2.436,2.436,0,0,1,423.005,112.637ZM414.1,99.776a13,13,0,0,0-3.653-5.219,11.838,11.838,0,0,0-7.754-2.908A12.279,12.279,0,0,0,391.1,99.776Z" transform="translate(-209.365 -27.338)" fill="#fff"/>
    <path id="XMLID_155_" d="M513.484,120.427v-.41c0-8.164-.037-16.291.037-24.454a19.618,19.618,0,0,1,1.864-7.828,22.323,22.323,0,0,1,13.756-12.451c.969-.336,1.938-.522,2.982-.783.634,3.616,1.267,7.157,1.9,10.736-.6.149-1.193.261-1.752.41a10.76,10.76,0,0,0-7.53,7.978,10.205,10.205,0,0,0-.3,2.8v24.044C520.754,120.427,517.138,120.427,513.484,120.427Z" transform="translate(-293.209 -22.267)" fill="#fff"/>
    <path id="XMLID_154_" d="M333.3,85.1h11.37v41.975H333.3Z" transform="translate(-180.2 -28.915)" fill="#fff"/>
    <path id="XMLID_153_" d="M337.762,51.749a6.375,6.375,0,1,1,6.486-6.263A6.443,6.443,0,0,1,337.762,51.749Z" transform="translate(-179.07 0)" fill="#fff"/>
    <path id="XMLID_152_" d="M145.6,197.5l.075.075Z" transform="translate(-62.471 -99.415)" fill="#fff"/>
    <path id="XMLID_151_" d="M178.9,197.575l.075-.075C178.937,197.537,178.9,197.537,178.9,197.575Z" transform="translate(-83.357 -99.415)" fill="#fff"/>
    <path id="XMLID_150_" d="M283.3,197.5l.075.075Z" transform="translate(-148.839 -99.415)" fill="#fff"/>
  </g>
</svg>
